# xmcd
#
# Track frame offsets:
#	150
#	13275
#	26325
#	42225
#	54000
#	68700
#	82950
#	95625
#	106950
#	120900
#	135750
#	145200
#	161100
#	174675
#	186225
#
# Disc length: 2667 seconds
#
# Revision: 0
# Processed by: cddbd v1.5.2PL0 Copyright (c) Steve Scherf et al.
# Submitted via: EasyCDDAExtractor 16.0.6.1
#
DISCID=bc0a690f
DTITLE=Μυτιληναίος Λευτέρης - Οι επιτυχίες μου-Λ. Μυτιληναίος
DYEAR=1986
DGENRE=Ελαφρολαϊκή
TTITLE0=Εσύ με τα πράσινα μάτια
TTITLE1=Μακάρι να πίστευε
TTITLE2=Με δίχως φτερά
TTITLE3=Χιλιάδες περάσανε
TTITLE4=Πού νά 'σαι
TTITLE5=Και απλώνω τα χέρια μου
TTITLE6=Θα γυρίσω μιά μέρα πιο πίσω
TTITLE7=Θά 'σαι καϋμός
TTITLE8=Παντού τη ζητάω
TTITLE9=Ας είχα τη δύναμη
TTITLE10=Θα με κάνεις τρελλό
TTITLE11=Ό,τι έχω και δεν έχω
TTITLE12=Τα φώτα χαμηλώστε
TTITLE13=Το μετάνοιωσες, ε;
TTITLE14=Βραδυάζει
EXTD=
EXTT0=
EXTT1=
EXTT2=
EXTT3=
EXTT4=
EXTT5=
EXTT6=
EXTT7=
EXTT8=
EXTT9=
EXTT10=
EXTT11=
EXTT12=
EXTT13=
EXTT14=
PLAYORDER=
